<svg id="Capa_1" enable-background="new 0 0 512.002 512.002" height="512" viewBox="0 0 512.002 512.002" width="512" xmlns="http://www.w3.org/2000/svg"><g><path d="m0 512.001h512.002l-46.875-90h-18.401l65.275-125.328v-206.672c0-24.813-20.187-45-45-45s-45 20.187-45 45v114.58c-15.832-5.57-34.181-2.039-46.819 10.6l-112.255 112.255c-2.516 2.516-4.82 5.188-6.926 7.982-2.106-2.795-4.411-5.466-6.927-7.983l-112.254-112.254c-12.639-12.638-30.987-16.17-46.819-10.6v-114.58c0-24.813-20.187-45-45-45s-45 20.187-45 45v206.672l65.275 125.328h-18.401zm462.552-30h-191.551v-30h175.926zm-178.411-133.353 112.254-112.253c5.849-5.848 15.364-5.848 21.213 0 2.833 2.833 4.394 6.6 4.394 10.607s-1.561 7.773-4.394 10.607l-112.21 112.208 21.213 21.213 112.209-112.209c8.382-8.381 13.04-19.487 13.168-31.32.012 0 .012-157.5.012-157.5 0-8.271 6.729-15 15-15s15 6.729 15 15v199.328l-69.1 132.672h-141.9v-41.5c.001-12.066 4.668-23.378 13.141-31.853zm-254.14-59.319v-199.328c0-8.271 6.729-15 15-15s15 6.729 15 15v157.5c.141 11.833 4.799 22.939 13.181 31.32l112.209 112.209 21.213-21.213-112.209-112.209c-5.849-5.849-5.849-15.365 0-21.213 5.85-5.848 15.365-5.848 21.213 0l112.252 112.252c8.474 8.476 13.141 19.788 13.141 31.854v41.5h-141.9zm35.074 162.672h175.926v30h-191.551z"/><path d="m256.001 291.935 110.846-110.846c16.221-16.221 25.154-37.787 25.154-60.727s-8.934-44.506-25.154-60.727c-1.199-1.199-2.463-2.376-3.77-3.531-2.589-13.081-8.935-25.56-19.052-35.677-13.172-13.172-30.686-20.426-49.315-20.426-13.987 0-27.345 4.089-38.709 11.703-11.364-7.614-24.722-11.703-38.709-11.703-18.629 0-36.143 7.254-49.314 20.427-10.117 10.117-16.463 22.595-19.052 35.677-1.307 1.154-2.571 2.332-3.77 3.531-16.221 16.221-25.154 37.787-25.154 60.727s8.934 44.506 25.154 60.726zm89.633-132.06-89.633 89.633-89.633-89.633c-10.555-10.554-16.367-24.586-16.367-39.513 0-7.351 1.417-14.483 4.108-21.092 3.341 7.167 7.961 13.881 13.868 19.788l88.023 88.024 88.023-88.024c5.907-5.907 10.528-12.621 13.868-19.788 2.692 6.609 4.108 13.741 4.108 21.092.002 14.927-5.811 28.959-16.365 39.513zm-156.444-118.234c7.507-7.506 17.486-11.64 28.102-11.64s20.596 4.134 28.103 11.64l10.606 10.607 10.606-10.607c7.507-7.506 17.486-11.64 28.103-11.64 10.615 0 20.595 4.134 28.102 11.64 15.495 15.496 15.495 40.708 0 56.204l-66.811 66.81-66.811-66.81c-15.495-15.495-15.495-40.708 0-56.204z"/></g></svg>